<svg xmlns="http://www.w3.org/2000/svg" width="17.482" height="17.482" viewBox="0 0 17.482 17.482">
  <path id="_5089b37465067c1c24e2191973f853a7" data-name="5089b37465067c1c24e2191973f853a7" d="M17.3,2H4.185A2.187,2.187,0,0,0,2,4.185v1.86a2.193,2.193,0,0,0,.7,1.6L8.119,12.68v6.366a.437.437,0,0,0,.437.437.428.428,0,0,0,.162-.032L13.089,17.7a.436.436,0,0,0,.275-.405V12.68l5.421-5.033a2.195,2.195,0,0,0,.7-1.6V4.185A2.187,2.187,0,0,0,17.3,2ZM12.629,12.169a.435.435,0,0,0-.14.32V17l-3.5,1.4V12.489a.435.435,0,0,0-.14-.32L3.55,7.245H17.934Zm5.979-6.124a1.308,1.308,0,0,1-.046.325H2.92a1.309,1.309,0,0,1-.046-.325V4.185A1.313,1.313,0,0,1,4.185,2.874H17.3a1.313,1.313,0,0,1,1.311,1.311Z" transform="translate(-2 -2)"/>
</svg>
